G04 EAGLE Gerber RS-274X export*
G75*
%MOMM*%
%FSLAX34Y34*%
%LPD*%
%INSoldermask Bottom*%
%IPPOS*%
%AMOC8*
5,1,8,0,0,1.08239X$1,22.5*%
G01*
%ADD10R,1.853200X1.853200*%
%ADD11C,1.853200*%
%ADD12R,1.808200X1.808200*%
%ADD13C,1.808200*%
%ADD14C,5.378200*%
%ADD15C,0.959600*%


D10*
X304800Y127000D03*
D11*
X304800Y152400D03*
X330200Y127000D03*
X330200Y152400D03*
X355600Y127000D03*
X355600Y152400D03*
X381000Y127000D03*
X381000Y152400D03*
X406400Y127000D03*
X406400Y152400D03*
X431800Y127000D03*
X431800Y152400D03*
X457200Y127000D03*
X457200Y152400D03*
X482600Y127000D03*
X482600Y152400D03*
X508000Y127000D03*
X508000Y152400D03*
X533400Y127000D03*
X533400Y152400D03*
X558800Y127000D03*
X558800Y152400D03*
X584200Y127000D03*
X584200Y152400D03*
X609600Y127000D03*
X609600Y152400D03*
X635000Y127000D03*
X635000Y152400D03*
X660400Y127000D03*
X660400Y152400D03*
X685800Y127000D03*
X685800Y152400D03*
X711200Y127000D03*
X711200Y152400D03*
X736600Y127000D03*
X736600Y152400D03*
X762000Y127000D03*
X762000Y152400D03*
X787400Y127000D03*
X787400Y152400D03*
X812800Y127000D03*
X812800Y152400D03*
X838200Y127000D03*
X838200Y152400D03*
X863600Y127000D03*
X863600Y152400D03*
X889000Y127000D03*
X889000Y152400D03*
X914400Y127000D03*
X914400Y152400D03*
X939800Y127000D03*
X939800Y152400D03*
X965200Y127000D03*
X965200Y152400D03*
X990600Y127000D03*
X990600Y152400D03*
X1016000Y127000D03*
X1016000Y152400D03*
X1041400Y127000D03*
X1041400Y152400D03*
X1066800Y127000D03*
X1066800Y152400D03*
X1092200Y127000D03*
X1092200Y152400D03*
X1117600Y127000D03*
X1117600Y152400D03*
X1143000Y127000D03*
X1143000Y152400D03*
X1168400Y127000D03*
X1168400Y152400D03*
X1193800Y127000D03*
X1193800Y152400D03*
X1219200Y127000D03*
X1219200Y152400D03*
X1244600Y127000D03*
X1244600Y152400D03*
X1270000Y127000D03*
X1270000Y152400D03*
X1295400Y127000D03*
X1295400Y152400D03*
X1320800Y127000D03*
X1320800Y152400D03*
X1346200Y127000D03*
X1346200Y152400D03*
X1371600Y127000D03*
X1371600Y152400D03*
X1397000Y127000D03*
X1397000Y152400D03*
D12*
X266700Y685800D03*
D13*
X266700Y736600D03*
X292100Y685800D03*
X292100Y736600D03*
X317500Y685800D03*
X317500Y736600D03*
X342900Y685800D03*
X342900Y736600D03*
X368300Y685800D03*
X368300Y736600D03*
X393700Y685800D03*
X393700Y736600D03*
X419100Y685800D03*
X419100Y736600D03*
X444500Y685800D03*
X444500Y736600D03*
X469900Y685800D03*
X469900Y736600D03*
X495300Y685800D03*
X495300Y736600D03*
X520700Y685800D03*
X520700Y736600D03*
X546100Y685800D03*
X546100Y736600D03*
X571500Y685800D03*
X571500Y736600D03*
X596900Y685800D03*
X596900Y736600D03*
X622300Y685800D03*
X622300Y736600D03*
X647700Y685800D03*
X647700Y736600D03*
X673100Y685800D03*
X673100Y736600D03*
X698500Y685800D03*
X698500Y736600D03*
X723900Y685800D03*
X723900Y736600D03*
X749300Y685800D03*
X749300Y736600D03*
X774700Y685800D03*
X774700Y736600D03*
X800100Y685800D03*
X800100Y736600D03*
X825500Y685800D03*
X825500Y736600D03*
X850900Y685800D03*
X850900Y736600D03*
X876300Y685800D03*
X876300Y736600D03*
X901700Y685800D03*
X901700Y736600D03*
X927100Y685800D03*
X927100Y736600D03*
X952500Y685800D03*
X952500Y736600D03*
X977900Y685800D03*
X977900Y736600D03*
X1003300Y685800D03*
X1003300Y736600D03*
X1028700Y685800D03*
X1028700Y736600D03*
X1054100Y685800D03*
X1054100Y736600D03*
X1079500Y685800D03*
X1079500Y736600D03*
X1104900Y685800D03*
X1104900Y736600D03*
X1130300Y685800D03*
X1130300Y736600D03*
X1155700Y685800D03*
X1155700Y736600D03*
X1181100Y685800D03*
X1181100Y736600D03*
X1206500Y685800D03*
X1206500Y736600D03*
X1231900Y685800D03*
X1231900Y736600D03*
X1257300Y685800D03*
X1257300Y736600D03*
X1282700Y685800D03*
X1282700Y736600D03*
X1308100Y685800D03*
X1308100Y736600D03*
X1333500Y685800D03*
X1333500Y736600D03*
X1358900Y685800D03*
X1358900Y736600D03*
D14*
X180950Y711200D03*
X1444650Y711200D03*
D15*
X1384300Y495300D03*
X1422400Y495300D03*
X1435100Y88900D03*
X266700Y88900D03*
X114300Y787400D03*
X1511300Y787400D03*
M02*
