M48
;GenerationSoftware,Autodesk,EAGLE,9.6.2*%
;CreationDate,2023-04-15T18:38:33Z*%
FMAT,2
ICI,OFF
METRIC,TZ,000.000
T4C0.350
T3C1.070
T2C1.100
T1C3.450
%
G90
M71
T1
X144465Y71120
X18095Y71120
T2
X139700Y12700
X139700Y15240
X137160Y15240
X137160Y12700
X30480Y12700
X30480Y15240
X33020Y12700
X33020Y15240
X35560Y12700
X35560Y15240
X38100Y12700
X38100Y15240
X40640Y12700
X40640Y15240
X43180Y12700
X43180Y15240
X45720Y12700
X45720Y15240
X48260Y12700
X48260Y15240
X50800Y12700
X50800Y15240
X53340Y12700
X53340Y15240
X55880Y12700
X55880Y15240
X58420Y12700
X58420Y15240
X60960Y12700
X60960Y15240
X63500Y12700
X63500Y15240
X66040Y12700
X66040Y15240
X68580Y12700
X68580Y15240
X71120Y12700
X71120Y15240
X73660Y12700
X73660Y15240
X76200Y12700
X76200Y15240
X78740Y12700
X78740Y15240
X81280Y12700
X81280Y15240
X83820Y12700
X83820Y15240
X86360Y12700
X86360Y15240
X88900Y12700
X88900Y15240
X91440Y12700
X91440Y15240
X93980Y12700
X93980Y15240
X96520Y12700
X96520Y15240
X99060Y12700
X99060Y15240
X101600Y12700
X101600Y15240
X104140Y12700
X104140Y15240
X106680Y12700
X106680Y15240
X109220Y12700
X109220Y15240
X111760Y12700
X111760Y15240
X114300Y12700
X114300Y15240
X116840Y12700
X116840Y15240
X119380Y12700
X119380Y15240
X121920Y12700
X121920Y15240
X124460Y12700
X124460Y15240
X127000Y12700
X127000Y15240
X129540Y12700
X129540Y15240
X132080Y12700
X132080Y15240
X134620Y12700
X134620Y15240
T3
X135890Y68580
X135890Y73660
X133350Y73660
X133350Y68580
X26670Y68580
X26670Y73660
X29210Y68580
X29210Y73660
X31750Y68580
X31750Y73660
X34290Y68580
X34290Y73660
X36830Y68580
X36830Y73660
X39370Y68580
X39370Y73660
X41910Y68580
X41910Y73660
X44450Y68580
X44450Y73660
X46990Y68580
X46990Y73660
X49530Y68580
X49530Y73660
X52070Y68580
X52070Y73660
X54610Y68580
X54610Y73660
X57150Y68580
X57150Y73660
X59690Y68580
X59690Y73660
X62230Y68580
X62230Y73660
X64770Y68580
X64770Y73660
X67310Y68580
X67310Y73660
X69850Y68580
X69850Y73660
X72390Y68580
X72390Y73660
X74930Y68580
X74930Y73660
X77470Y68580
X77470Y73660
X80010Y68580
X80010Y73660
X82550Y68580
X82550Y73660
X85090Y68580
X85090Y73660
X87630Y68580
X87630Y73660
X90170Y68580
X90170Y73660
X92710Y68580
X92710Y73660
X95250Y68580
X95250Y73660
X97790Y68580
X97790Y73660
X100330Y68580
X100330Y73660
X102870Y68580
X102870Y73660
X105410Y68580
X105410Y73660
X107950Y68580
X107950Y73660
X110490Y68580
X110490Y73660
X113030Y68580
X113030Y73660
X115570Y68580
X115570Y73660
X118110Y68580
X118110Y73660
X120650Y68580
X120650Y73660
X123190Y68580
X123190Y73660
X125730Y68580
X125730Y73660
X128270Y68580
X128270Y73660
X130810Y68580
X130810Y73660
T4
X26670Y8890
X143510Y8890
X151130Y78740
X11430Y78740
X142240Y49530
X138430Y49530
M30